<svg width="28" height="28" viewBox="0 0 28 28" fill="none" xmlns="http://www.w3.org/2000/svg">
<path fill-rule="evenodd" clip-rule="evenodd" d="M14 2.8C14.3713 2.8 14.7274 2.9475 14.9899 3.21005C15.2525 3.4726 15.4 3.8287 15.4 4.2V5.6C15.4 5.9713 15.2525 6.3274 14.9899 6.58995C14.7274 6.8525 14.3713 7 14 7C13.6287 7 13.2726 6.8525 13.01 6.58995C12.7475 6.3274 12.6 5.9713 12.6 5.6V4.2C12.6 3.8287 12.7475 3.4726 13.01 3.21005C13.2726 2.9475 13.6287 2.8 14 2.8ZM19.6 14C19.6 15.4852 19.01 16.9096 17.9598 17.9598C16.9096 19.01 15.4852 19.6 14 19.6C12.5148 19.6 11.0904 19.01 10.0402 17.9598C8.98999 16.9096 8.39999 15.4852 8.39999 14C8.39999 12.5148 8.98999 11.0904 10.0402 10.0402C11.0904 8.99 12.5148 8.4 14 8.4C15.4852 8.4 16.9096 8.99 17.9598 10.0402C19.01 11.0904 19.6 12.5148 19.6 14ZM18.9504 20.93L19.9402 21.9198C20.2042 22.1748 20.5579 22.3159 20.9249 22.3127C21.292 22.3096 21.6432 22.1623 21.9027 21.9027C22.1623 21.6432 22.3095 21.292 22.3127 20.925C22.3159 20.5579 22.1748 20.2042 21.9198 19.9402L20.93 18.9504C20.6659 18.6954 20.3123 18.5543 19.9452 18.5575C19.5782 18.5606 19.227 18.7079 18.9674 18.9675C18.7079 19.227 18.5606 19.5782 18.5574 19.9452C18.5543 20.3123 18.6954 20.666 18.9504 20.93ZM21.9184 6.0802C22.1808 6.34274 22.3283 6.69877 22.3283 7.07C22.3283 7.44123 22.1808 7.79726 21.9184 8.0598L20.93 9.0496C20.8008 9.18331 20.6464 9.28997 20.4756 9.36334C20.3047 9.43671 20.121 9.47533 19.9351 9.47695C19.7493 9.47857 19.5649 9.44314 19.3929 9.37275C19.2208 9.30236 19.0645 9.1984 18.933 9.06695C18.8016 8.9355 18.6976 8.77919 18.6272 8.60713C18.5568 8.43508 18.5214 8.25073 18.523 8.06484C18.5247 7.87895 18.5633 7.69524 18.6366 7.52443C18.71 7.35363 18.8167 7.19915 18.9504 7.07L19.9402 6.0802C20.2027 5.81774 20.5588 5.6703 20.93 5.6703C21.3012 5.6703 21.6558 5.81774 21.9184 6.0802ZM23.8 15.4C24.1713 15.4 24.5274 15.2525 24.7899 14.9899C25.0525 14.7274 25.2 14.3713 25.2 14C25.2 13.6287 25.0525 13.2726 24.7899 13.01C24.5274 12.7475 24.1713 12.6 23.8 12.6H22.4C22.0287 12.6 21.6726 12.7475 21.41 13.01C21.1475 13.2726 21 13.6287 21 14C21 14.3713 21.1475 14.7274 21.41 14.9899C21.6726 15.2525 22.0287 15.4 22.4 15.4H23.8ZM14 21C14.3713 21 14.7274 21.1475 14.9899 21.41C15.2525 21.6726 15.4 22.0287 15.4 22.4V23.8C15.4 24.1713 15.2525 24.5274 14.9899 24.7899C14.7274 25.0525 14.3713 25.2 14 25.2C13.6287 25.2 13.2726 25.0525 13.01 24.7899C12.7475 24.5274 12.6 24.1713 12.6 23.8V22.4C12.6 22.0287 12.7475 21.6726 13.01 21.41C13.2726 21.1475 13.6287 21 14 21ZM7.06999 9.0496C7.19997 9.17967 7.3543 9.28287 7.52417 9.3533C7.69403 9.42373 7.8761 9.46002 8.05999 9.46008C8.24388 9.46015 8.42598 9.42399 8.5959 9.35368C8.76581 9.28337 8.92021 9.18028 9.05029 9.0503C9.18036 8.92032 9.28356 8.76599 9.35399 8.59612C9.42442 8.42626 9.46071 8.24418 9.46077 8.06029C9.46084 7.87641 9.42468 7.69431 9.35437 7.52439C9.28406 7.35448 9.18097 7.20007 9.05099 7.07L8.05979 6.0802C7.79574 5.82518 7.4421 5.68407 7.07503 5.68726C6.70795 5.69045 6.35681 5.83768 6.09724 6.09725C5.83767 6.35682 5.69043 6.70796 5.68724 7.07504C5.68405 7.44211 5.82517 7.79576 6.08019 8.0598L7.06999 9.0496ZM9.04959 20.93L8.05979 21.9198C7.79574 22.1748 7.4421 22.3159 7.07503 22.3127C6.70795 22.3096 6.35681 22.1623 6.09724 21.9027C5.83767 21.6432 5.69043 21.292 5.68724 20.925C5.68405 20.5579 5.82517 20.2042 6.08019 19.9402L7.06999 18.9504C7.33403 18.6954 7.68767 18.5543 8.05475 18.5575C8.42182 18.5606 8.77296 18.7079 9.03253 18.9675C9.2921 19.227 9.43934 19.5782 9.44253 19.9452C9.44572 20.3123 9.30461 20.666 9.04959 20.93ZM5.59999 15.4C5.97129 15.4 6.32739 15.2525 6.58994 14.9899C6.85249 14.7274 6.99999 14.3713 6.99999 14C6.99999 13.6287 6.85249 13.2726 6.58994 13.01C6.32739 12.7475 5.97129 12.6 5.59999 12.6H4.19999C3.82868 12.6 3.47259 12.7475 3.21004 13.01C2.94749 13.2726 2.79999 13.6287 2.79999 14C2.79999 14.3713 2.94749 14.7274 3.21004 14.9899C3.47259 15.2525 3.82868 15.4 4.19999 15.4H5.59999Z" fill="white"/>
</svg>
